# xmcd CD database file
#
# Track frame offsets:
#	182
#	18815
#	42635
#	66425
#
# Disc length: 1157 seconds
#
# Revision: 4
# Processed by: cddbd v1.5.2PL0 Copyright (c) Steve Scherf et al.
# Submitted via: CDex 1.51
#
DISCID=31048304
DTITLE=Hit 'n' Run - Jump '94
DYEAR=1994
DGENRE=Dance
TTITLE0=Jump '94 (Short Radio)
TTITLE1=Jump '94 (Long Radio)
TTITLE2=Club 144
TTITLE3=Like A Ball
EXTD=YEAR: 1994
EXTT0=
EXTT1=
EXTT2=
EXTT3=
PLAYORDER=
